<svg width="22" height="26" viewBox="0 0 22 26" fill="none" xmlns="http://www.w3.org/2000/svg">
<rect width="22" height="25.4375" fill="white"/>
<path d="M4.125 13.0625C4.125 12.3031 4.74061 11.6875 5.5 11.6875H16.5C17.2594 11.6875 17.875 12.3031 17.875 13.0625V22C17.875 22.7594 17.2594 23.375 16.5 23.375H5.5C4.74061 23.375 4.125 22.7594 4.125 22V13.0625Z" fill="#162938"/>
<mask id="path-2-inside-1_172_203" fill="white">
<path d="M6.875 6.875H15.125V11.6875H6.875V6.875Z"/>
</mask>
<path d="M13.75 6.875V11.6875H16.5V6.875H13.75ZM8.25 11.6875V6.875H5.5V11.6875H8.25Z" fill="#162938" mask="url(#path-2-inside-1_172_203)"/>
<path fill-rule="evenodd" clip-rule="evenodd" d="M11 3.09375C13.2782 3.09375 15.125 4.94058 15.125 7.21875H13.75C13.75 5.69997 12.5188 4.46875 11 4.46875C9.48122 4.46875 8.25 5.69997 8.25 7.21875H6.875C6.875 4.94058 8.72183 3.09375 11 3.09375Z" fill="#162938"/>
</svg>
