<svg width="41" height="40" viewBox="0 0 41 40" fill="none" xmlns="http://www.w3.org/2000/svg">
<g clip-path="url(#clip0_38_3)">
<path d="M38 29.2272L35.5 27.9772V25C35.4971 23.2292 34.8681 21.5165 33.7244 20.1646C32.5807 18.8127 30.9958 17.9088 29.25 17.6125V15H26.75V17.6125C25.0042 17.9088 23.4193 18.8127 22.2756 20.1646C21.1319 21.5165 20.5029 23.2292 20.5 25V27.9772L18 29.2272V35H25.5V37.5H30.5V35H38V29.2272ZM35.5 32.5H20.5V30.7728L23 29.5228V25C23 23.6739 23.5268 22.4021 24.4645 21.4645C25.4021 20.5268 26.6739 20 28 20C29.3261 20 30.5979 20.5268 31.5355 21.4645C32.4732 22.4021 33 23.6739 33 25V29.5228L35.5 30.7728V32.5Z" fill="black"/>
<path d="M35.5 7.5C35.5 6.83696 35.2366 6.20107 34.7678 5.73223C34.2989 5.26339 33.663 5 33 5H28V2.5H25.5V5H15.5V2.5H13V5H8C7.33696 5 6.70107 5.26339 6.23223 5.73223C5.76339 6.20107 5.5 6.83696 5.5 7.5V32.5C5.5 33.163 5.76339 33.7989 6.23223 34.2678C6.70107 34.7366 7.33696 35 8 35H13V32.5H8V7.5H13V10H15.5V7.5H25.5V10H28V7.5H33V15H35.5V7.5Z" fill="black"/>
</g>
<defs>
<clipPath id="clip0_38_3">
<rect width="40" height="40" fill="white" transform="translate(0.5)"/>
</clipPath>
</defs>
</svg>
