<svg width="18" height="18" viewBox="0 0 18 18" fill="none" xmlns="http://www.w3.org/2000/svg">
<g clip-path="url(#clip0_87_681)">
<path d="M8.4768 16.5816V17.1792C8.4768 17.5092 8.74433 17.7767 9.07437 17.7767H17.4024C17.7325 17.7767 18 17.5092 18 17.1792V16.5816C18 16.2516 17.7325 15.984 17.4024 15.984L9.07437 15.984C8.74433 15.984 8.4768 16.2516 8.4768 16.5816Z" fill="black"/>
<path d="M10.1965 14.012L17.4024 14.012C17.7325 14.012 18 13.7445 18 13.4145V12.8169C18 12.4868 17.7325 12.2193 17.4024 12.2193H10.1965C9.86651 12.2193 9.59898 12.4868 9.59898 12.8169V13.4145C9.59898 13.7445 9.86651 14.012 10.1965 14.012Z" fill="black"/>
<path d="M11.3188 10.2473H17.4024C17.7325 10.2473 18 9.97978 18 9.64974V9.05217C18 8.72213 17.7325 8.4546 17.4024 8.4546H11.3188C10.9888 8.4546 10.7213 8.72213 10.7213 9.05217V9.64974C10.7213 9.97978 10.9888 10.2473 11.3188 10.2473Z" fill="black"/>
<path d="M12.4411 6.06433L17.4024 6.06433C17.7325 6.06433 18 5.7968 18 5.46676V4.86919C18 4.53915 17.7325 4.27162 17.4024 4.27162L12.4411 4.27162C12.1111 4.27162 11.8435 4.53915 11.8435 4.86919V5.46676C11.8435 5.7968 12.111 6.06433 12.4411 6.06433Z" fill="black"/>
<path d="M13.5634 2.29962L17.4024 2.29962C17.7325 2.29962 18 2.03209 18 1.70205V1.10448C18 0.774439 17.7325 0.506906 17.4024 0.506906L13.5634 0.506906C13.2334 0.506906 12.9658 0.774439 12.9658 1.10448V1.70205C12.9658 2.03209 13.2333 2.29962 13.5634 2.29962Z" fill="black"/>
<path d="M0.175055 5.04005L0.597598 5.46259C0.709643 5.57463 0.861664 5.63762 1.02014 5.63762C1.17862 5.63762 1.33064 5.57463 1.44274 5.46259L3.49797 3.40736L3.49797 16.8804C3.49797 17.2104 3.76551 17.478 4.09554 17.478H4.69312C5.02315 17.478 5.29069 17.2104 5.29069 16.8804L5.29069 3.40742L7.34592 5.46265C7.45802 5.57469 7.60998 5.63768 7.76846 5.63768C7.92694 5.63768 8.07896 5.57469 8.191 5.46265L8.61361 5.0401C8.8469 4.80675 8.8469 4.42837 8.61361 4.19502L4.81687 0.398287C4.70017 0.281582 4.54725 0.223257 4.39433 0.223257C4.24141 0.223257 4.08843 0.281582 3.97179 0.398287L0.175055 4.19502C-0.0582972 4.42837 -0.0582972 4.80675 0.175055 5.04005Z" fill="black"/>
</g>
<defs>
<clipPath id="clip0_87_681">
<rect width="18" height="18" fill="white"/>
</clipPath>
</defs>
</svg>
