<svg width="18" height="18" viewBox="0 0 18 18" fill="none" xmlns="http://www.w3.org/2000/svg">
<g clip-path="url(#clip0_87_680)">
<path d="M9.5232 1.41841V0.820838C9.5232 0.4908 9.25567 0.223267 8.92563 0.223267H0.597572C0.267533 0.223267 0 0.4908 0 0.820838L0 1.41841C0 1.74845 0.267533 2.01598 0.597572 2.01598H8.92563C9.25567 2.01598 9.5232 1.74845 9.5232 1.41841Z" fill="black"/>
<path d="M7.80345 3.98798H0.597572C0.267533 3.98798 0 4.25551 0 4.58555L0 5.18312C0 5.51316 0.267533 5.78069 0.597572 5.78069H7.80345C8.13349 5.78069 8.40102 5.51316 8.40102 5.18312V4.58555C8.40102 4.25551 8.13349 3.98798 7.80345 3.98798Z" fill="black"/>
<path d="M6.68115 7.75269H0.597572C0.267533 7.75269 0 8.02022 0 8.35026L0 8.94783C0 9.27787 0.267533 9.5454 0.597572 9.5454H6.68115C7.01119 9.5454 7.27872 9.27787 7.27872 8.94783V8.35026C7.27872 8.02022 7.01119 7.75269 6.68115 7.75269Z" fill="black"/>
<path d="M5.55891 11.9357H0.597572C0.267533 11.9357 0 12.2032 0 12.5332L0 13.1308C0 13.4609 0.267533 13.7284 0.597572 13.7284H5.55891C5.88889 13.7284 6.15648 13.4609 6.15648 13.1308V12.5332C6.15648 12.2032 5.88895 11.9357 5.55891 11.9357Z" fill="black"/>
<path d="M4.43661 15.7004H0.597572C0.267533 15.7004 0 15.9679 0 16.298L0 16.8955C0 17.2256 0.267533 17.4931 0.597572 17.4931H4.43661C4.76659 17.4931 5.03418 17.2256 5.03418 16.8955V16.298C5.03418 15.9679 4.76665 15.7004 4.43661 15.7004Z" fill="black"/>
<path d="M17.8249 12.96L17.4024 12.5374C17.2904 12.4254 17.1383 12.3624 16.9799 12.3624C16.8214 12.3624 16.6694 12.4254 16.5573 12.5374L14.502 14.5926V1.11961C14.502 0.789567 14.2345 0.522034 13.9045 0.522034H13.3069C12.9768 0.522034 12.7093 0.789567 12.7093 1.11961V14.5926L10.6541 12.5374C10.542 12.4253 10.39 12.3623 10.2315 12.3623C10.0731 12.3623 9.92104 12.4253 9.809 12.5374L9.38639 12.9599C9.1531 13.1932 9.1531 13.5716 9.38639 13.805L13.1831 17.6017C13.2998 17.7184 13.4528 17.7767 13.6057 17.7767C13.7586 17.7767 13.9116 17.7184 14.0282 17.6017L17.8249 13.805C18.0583 13.5716 18.0583 13.1932 17.8249 12.96Z" fill="black"/>
</g>
<defs>
<clipPath id="clip0_87_680">
<rect width="18" height="18" fill="white"/>
</clipPath>
</defs>
</svg>
